<svg width="200" height="200" viewBox="0 0 200 200" fill="none" xmlns="http://www.w3.org/2000/svg">
  <!-- Thick Purple Outline / Background Shape -->
  <path d="M40 140 
           Q 60 170 100 170
           Q 150 170 170 110
           Q 180 80 160 50
           Q 150 30 140 40
           Q 130 50 140 60
           Q 160 100 130 140
           Q 100 160 60 140
           Q 50 130 40 140 Z" 
        stroke="#330066" 
        stroke-width="12" 
        stroke-linejoin="round" 
        stroke-linecap="round"/>

  <!-- Main Yellow Body -->
  <path d="M40 140 
           Q 60 170 100 170
           Q 150 170 170 110
           Q 180 80 160 50
           Q 150 30 140 40
           Q 130 50 140 60
           Q 160 100 130 140
           Q 100 160 60 140
           Q 50 130 40 140 Z" 
        fill="#FFE135"/>
        
  <!-- Internal Purple Detail Line -->
  <path d="M60 145 Q 100 155 130 130" stroke="#330066" stroke-width="4" stroke-linecap="round" stroke-opacity="1"/>
  
  <!-- Vertical Line Detail (from ref) -->
   <line x1="85" y1="135" x2="85" y2="155" stroke="#330066" stroke-width="4" stroke-linecap="round"/>

  <!-- Sparkle -->
  <path d="M145 105 
           C 145 105, 150 100, 155 105
           C 160 110, 155 115, 145 115
           C 135 115, 130 110, 135 105
           C 140 100, 145 105, 145 105 Z" 
        fill="#330066" transform="scale(1.2) translate(-10, -10)"/>
    <path d="M150 95 L 150 115 M 140 105 L 160 105" stroke="#330066" stroke-width="3" stroke-linecap="round"/>
</svg>
